<svg xmlns="http://www.w3.org/2000/svg" width="30" height="32" viewBox="0 0 30 32" fill="none">
    <path d="M27.8909 25.1731C27.5446 23.0936 26.0865 21.3873 24.086 20.7205L19.6453 19.2402V18.5801H18.613V19.5483L17.8424 22.6301L15.7578 20.1285H14.2419L12.1573 22.6301L11.3872 19.5483V18.5801H10.3549V19.2402L5.91416 20.7205C3.91416 21.3873 2.45609 23.0936 2.10926 25.1731L0.971191 31.9994H29.0285L27.8909 25.1731ZM24.2414 30.9672L23.7717 26.2704L22.7446 26.3731L23.204 30.9667H6.79622L7.25558 26.3731L6.22848 26.2704L5.7588 30.9672H2.19029L3.12758 25.3434C3.41093 23.6418 4.60422 22.2461 6.24087 21.7001L10.5056 20.2781L11.6494 24.8526L14.7255 21.1607H15.2742L18.3508 24.8526L19.4945 20.2781L23.7593 21.7001C25.396 22.2456 26.5887 23.6418 26.8726 25.3434L27.8099 30.9672H24.2414Z" fill="#0080F7"/>
    <path d="M8.51872 13.9066C8.78195 14.8124 9.26814 15.6428 9.95356 16.3283L11.9665 18.3412C12.4537 18.8284 13.1014 19.0968 13.791 19.0968H16.2101C16.8991 19.0968 17.5474 18.8284 18.0346 18.3412L20.0475 16.3283C20.7329 15.6428 21.2191 14.8119 21.4823 13.9066C22.768 13.761 23.7745 12.6792 23.7745 11.3548C23.7745 10.5079 23.3585 9.76103 22.7262 9.29032H22.7422V6.19355C22.7422 4.90168 21.7874 3.82813 20.5466 3.64181C19.7698 1.48026 17.6914 0 15.3719 0H15.0003C10.7314 0 7.25833 3.47303 7.25833 7.74194V9.29032H7.27433C6.64207 9.76103 6.22607 10.5079 6.22607 11.3548C6.22607 12.6792 7.23253 13.761 8.51872 13.9066ZM19.3172 15.5985L17.3043 17.6114C17.0163 17.8994 16.6173 18.0645 16.2096 18.0645H13.7905C13.3827 18.0645 12.9843 17.8994 12.6958 17.6114L10.6828 15.5985C9.80543 14.721 9.32233 13.5546 9.32233 12.3138V9.80645H11.3502C13.6217 9.80645 15.7693 8.99974 17.4663 7.52207L17.6243 7.78529C18.2828 8.8831 19.4225 9.6129 20.6777 9.77187V12.3133C20.6777 13.5546 20.1946 14.721 19.3172 15.5985ZM21.6857 12.8155C21.7001 12.6498 21.7099 12.4826 21.7099 12.3138V9.90142C22.3092 10.1151 22.7422 10.6828 22.7422 11.3548C22.7422 12.0356 22.2973 12.609 21.6857 12.8155ZM8.29059 7.74194C8.29059 4.04232 11.3007 1.03226 15.0003 1.03226H15.3719C17.3548 1.03226 19.1205 2.36387 19.6656 4.27097L19.7724 4.64516H20.1616C21.0152 4.64516 21.7099 5.33987 21.7099 6.19355V8.82632C21.5432 8.79226 21.3703 8.77419 21.1938 8.77419C20.1007 8.77419 19.072 8.192 18.5094 7.25419L17.6831 5.87716L17.2155 6.34477C15.649 7.91123 13.5665 8.77419 11.3507 8.77419H8.80672C8.6302 8.77419 8.4573 8.79226 8.29059 8.82632V7.74194V7.74194ZM8.29059 9.90142V12.3138C8.29059 12.4826 8.3004 12.6498 8.31485 12.816C7.70324 12.609 7.25833 12.0356 7.25833 11.3548C7.25833 10.6828 7.69136 10.1151 8.29059 9.90142Z" fill="#0080F7"/>
    </svg>